<?xml version="1.0" encoding="UTF-8" standalone="no"?>
<svg
   xmlns:dc="http://purl.org/dc/elements/1.1/"
   xmlns:cc="http://creativecommons.org/ns#"
   xmlns:rdf="http://www.w3.org/1999/02/22-rdf-syntax-ns#"
   xmlns:svg="http://www.w3.org/2000/svg"
   xmlns="http://www.w3.org/2000/svg"
   xmlns:sodipodi="http://sodipodi.sourceforge.net/DTD/sodipodi-0.dtd"
   xmlns:inkscape="http://www.inkscape.org/namespaces/inkscape"
   id="Layer_1"
   enable-background="new 0 0 64 64"
   height="512px"
   viewBox="0 0 64 64"
   width="512px"
   version="1.1"
   sodipodi:docname="bell_red.svg"
   inkscape:version="1.0 (1.0+r73+1)">
  <metadata
     id="metadata961">
    <rdf:RDF>
      <cc:Work
         rdf:about="">
        <dc:format>image/svg+xml</dc:format>
        <dc:type
           rdf:resource="http://purl.org/dc/dcmitype/StillImage" />
        <dc:title />
      </cc:Work>
    </rdf:RDF>
  </metadata>
  <defs
     id="defs959" />
  <sodipodi:namedview
     inkscape:document-rotation="0"
     pagecolor="#ffffff"
     bordercolor="#666666"
     borderopacity="1"
     objecttolerance="10"
     gridtolerance="10"
     guidetolerance="10"
     inkscape:pageopacity="0"
     inkscape:pageshadow="2"
     inkscape:window-width="1920"
     inkscape:window-height="1029"
     id="namedview957"
     showgrid="false"
     inkscape:zoom="1.421875"
     inkscape:cx="260.21978"
     inkscape:cy="256"
     inkscape:window-x="0"
     inkscape:window-y="0"
     inkscape:window-maximized="1"
     inkscape:current-layer="Layer_1" />
  <g
     id="g918"
     style="stroke:#ee0000;stroke-opacity:1;stroke-width:1.00015748;stroke-miterlimit:4;stroke-dasharray:none;fill:#ff6666;fill-opacity:1">
    <path
       d="m32 12c-1.104 0-2-.896-2-2v-2c0-1.104.896-2 2-2s2 .896 2 2v2c0 1.104-.896 2-2 2z"
       fill="#46B799"
       id="path916"
       style="stroke:#ee0000;stroke-opacity:1;stroke-width:1.00015748;stroke-miterlimit:4;stroke-dasharray:none;fill:#ff6666;fill-opacity:1" />
  </g>
  <g
     id="g922"
     style="stroke:#ee0000;stroke-opacity:1;stroke-width:1.00015748;stroke-miterlimit:4;stroke-dasharray:none;fill:#ff6666;fill-opacity:1">
    <path
       d="m49.454 29.455c-1.104 0-2-.896-2-2 0-8.128-6.6-15.054-14.712-15.438-8.122-.375-15.363 5.88-16.128 13.961-.046.483-.069.979-.069 1.477 0 1.104-.896 2-2 2s-2-.896-2-2c0-.624.029-1.248.087-1.854.963-10.176 10.08-18.06 20.299-17.579 10.214.483 18.523 9.201 18.523 19.433 0 1.105-.896 2-2 2z"
       fill="#46B799"
       id="path920"
       style="stroke:#ee0000;stroke-opacity:1;stroke-width:1.00015748;stroke-miterlimit:4;stroke-dasharray:none;fill:#ff6666;fill-opacity:1" />
  </g>
  <g
     id="g926"
     style="stroke:#ee0000;stroke-opacity:1;stroke-width:1.00015748;stroke-miterlimit:4;stroke-dasharray:none;fill:#ff6666;fill-opacity:1">
    <path
       d="m53.203 43.096c-.493 0-.988-.182-1.375-.547-2.78-2.632-4.375-6.338-4.375-10.167 0-1.104.896-2 2-2s2 .896 2 2c0 2.735 1.139 5.383 3.125 7.262.802.759.837 2.025.078 2.828-.393.414-.923.624-1.453.624z"
       fill="#46B799"
       id="path924"
       style="stroke:#ee0000;stroke-opacity:1;stroke-width:1.00015748;stroke-miterlimit:4;stroke-dasharray:none;fill:#ff6666;fill-opacity:1" />
  </g>
  <g
     id="g930"
     style="stroke:#ee0000;stroke-opacity:1;stroke-width:1.00015748;stroke-miterlimit:4;stroke-dasharray:none;fill:#ff6666;fill-opacity:1">
    <path
       d="m10.795 43.096c-.531 0-1.06-.209-1.453-.625-.759-.802-.724-2.068.078-2.827 1.986-1.879 3.125-4.526 3.125-7.262 0-1.104.896-2 2-2s2 .896 2 2c0 3.831-1.595 7.537-4.375 10.167-.388.365-.882.547-1.375.547z"
       fill="#46B799"
       id="path928"
       style="stroke:#ee0000;stroke-opacity:1;stroke-width:1.00015748;stroke-miterlimit:4;stroke-dasharray:none;fill:#ff6666;fill-opacity:1" />
  </g>
  <g
     id="g934"
     style="stroke:#ee0000;stroke-opacity:1;stroke-width:1.00015748;stroke-miterlimit:4;stroke-dasharray:none;fill:#ff6666;fill-opacity:1">
    <path
       d="m32 58c-5.42 0-10-4.58-10-10 0-1.104.896-2 2-2s2 .896 2 2c0 3.252 2.748 6 6 6s6-2.748 6-6c0-1.104.896-2 2-2s2 .896 2 2c0 5.42-4.58 10-10 10z"
       fill="#46B799"
       id="path932"
       style="stroke:#ee0000;stroke-opacity:1;stroke-width:1.00015748;stroke-miterlimit:4;stroke-dasharray:none;fill:#ff6666;fill-opacity:1" />
  </g>
  <g
     id="g938"
     style="stroke:#ee0000;stroke-opacity:1;stroke-width:1.00015748;stroke-miterlimit:4;stroke-dasharray:none;fill:#ff6666;fill-opacity:1">
    <path
       d="m13.544 50c-2.437 0-4.605-1.49-5.524-3.796-.92-2.309-.371-4.884 1.399-6.56.802-.76 2.067-.725 2.828.077.759.802.725 2.068-.077 2.828-.876.83-.554 1.875-.434 2.175.119.298.602 1.276 1.808 1.276 1.104 0 2 .896 2 2s-.895 2-2 2z"
       fill="#46B799"
       id="path936"
       style="stroke:#ee0000;stroke-opacity:1;stroke-width:1.00015748;stroke-miterlimit:4;stroke-dasharray:none;fill:#ff6666;fill-opacity:1" />
  </g>
  <g
     id="g942"
     style="stroke:#ee0000;stroke-opacity:1;stroke-width:1.00015748;stroke-miterlimit:4;stroke-dasharray:none;fill:#ff6666;fill-opacity:1">
    <path
       d="m50.454 50c-1.104 0-2-.896-2-2s.896-2 2-2c1.207 0 1.691-.982 1.811-1.283.119-.299.44-1.34-.436-2.169-.802-.76-.837-2.025-.078-2.828.76-.802 2.025-.837 2.828-.078 1.77 1.676 2.32 4.249 1.402 6.554-.92 2.311-3.09 3.804-5.527 3.804z"
       fill="#46B799"
       id="path940"
       style="stroke:#ee0000;stroke-opacity:1;stroke-width:1.00015748;stroke-miterlimit:4;stroke-dasharray:none;fill:#ff6666;fill-opacity:1" />
  </g>
  <g
     id="g946"
     style="stroke:#ee0000;stroke-opacity:1;stroke-width:1.00015748;stroke-miterlimit:4;stroke-dasharray:none;fill:#ff6666;fill-opacity:1">
    <path
       d="m14.544 34.381c-1.104 0-2-.896-2-2v-4.926c0-1.104.896-2 2-2s2 .896 2 2v4.926c0 1.104-.895 2-2 2z"
       fill="#46B799"
       id="path944"
       style="stroke:#ee0000;stroke-opacity:1;stroke-width:1.00015748;stroke-miterlimit:4;stroke-dasharray:none;fill:#ff6666;fill-opacity:1" />
  </g>
  <g
     id="g950"
     style="stroke:#ee0000;stroke-opacity:1;stroke-width:1.00015748;stroke-miterlimit:4;stroke-dasharray:none;fill:#ff6666;fill-opacity:1">
    <path
       d="m49.454 34.381c-1.104 0-2-.896-2-2v-4.926c0-1.104.896-2 2-2s2 .896 2 2v4.926c0 1.104-.896 2-2 2z"
       fill="#46B799"
       id="path948"
       style="stroke:#ee0000;stroke-opacity:1;stroke-width:1.00015748;stroke-miterlimit:4;stroke-dasharray:none;fill:#ff6666;fill-opacity:1" />
  </g>
  <g
     id="g954"
     style="stroke:#ee0000;stroke-opacity:1;stroke-width:1.00015748;stroke-miterlimit:4;stroke-dasharray:none;fill:#ff6666;fill-opacity:1">
    <path
       d="m50.454 50h-36.91c-1.104 0-2-.896-2-2s.896-2 2-2h36.909c1.104 0 2 .896 2 2s-.895 2-1.999 2z"
       fill="#46B799"
       id="path952"
       style="stroke:#ee0000;stroke-opacity:1;stroke-width:1.00015748;stroke-miterlimit:4;stroke-dasharray:none;fill:#ff6666;fill-opacity:1" />
  </g>
</svg>
