<?xml version="1.0" encoding="UTF-8" standalone="no"?>
<svg
   xmlns:dc="http://purl.org/dc/elements/1.1/"
   xmlns:cc="http://creativecommons.org/ns#"
   xmlns:rdf="http://www.w3.org/1999/02/22-rdf-syntax-ns#"
   xmlns:svg="http://www.w3.org/2000/svg"
   xmlns="http://www.w3.org/2000/svg"
   xmlns:sodipodi="http://sodipodi.sourceforge.net/DTD/sodipodi-0.dtd"
   xmlns:inkscape="http://www.inkscape.org/namespaces/inkscape"
   inkscape:version="1.0 (1.0+r73+1)"
   sodipodi:docname="faucet.svg"
   version="1.1"
   width="512px"
   viewBox="0 0 512 512"
   height="512px"
   enable-background="new 0 0 512 512"
   id="Capa_1">
  <metadata
     id="metadata11">
    <rdf:RDF>
      <cc:Work
         rdf:about="">
        <dc:format>image/svg+xml</dc:format>
        <dc:type
           rdf:resource="http://purl.org/dc/dcmitype/StillImage" />
      </cc:Work>
    </rdf:RDF>
  </metadata>
  <defs
     id="defs9" />
  <sodipodi:namedview
     inkscape:current-layer="Capa_1"
     inkscape:window-maximized="1"
     inkscape:window-y="0"
     inkscape:window-x="0"
     inkscape:cy="627.36075"
     inkscape:cx="685.9065"
     inkscape:zoom="0.50270873"
     showgrid="false"
     id="namedview7"
     inkscape:window-height="1029"
     inkscape:window-width="1920"
     inkscape:pageshadow="2"
     inkscape:pageopacity="0"
     guidetolerance="10"
     gridtolerance="10"
     objecttolerance="10"
     borderopacity="1"
     bordercolor="#666666"
     pagecolor="#ffffff" />
  <g
     style="fill-opacity:1"
     id="g4">
    <path
       style="fill-opacity:1"
       id="path2"
       d="m126.908 331.006c2.495 3.288 1.872 7.965-1.417 10.488-3.288 2.495-7.966 1.871-10.488-1.417-5.357-6.973-11.424-13.606-18.17-19.758-5.329-4.848-11.056-9.354-17.122-13.436-19.219 12.841-34.44 29.736-45.298 47.85-12.756 21.289-19.418 44.107-19.418 63.78 0 17.887 7.257 34.044 18.964 45.751 11.708 11.707 27.866 18.964 45.752 18.964 17.858 0 34.045-7.257 45.752-18.964 11.708-11.707 18.937-27.865 18.937-45.751 0-7.909-1.049-16.3-3.146-24.832-2.098-8.532-5.216-17.292-9.354-25.994-1.758-3.742-.142-8.221 3.571-9.978 3.742-1.757 8.221-.17 9.979 3.572 4.535 9.582 7.993 19.304 10.317 28.885 2.41 9.808 3.629 19.39 3.629 28.347 0 22.025-8.901 41.925-23.329 56.353-14.43 14.429-34.357 23.358-56.354 23.358-22.024 0-41.953-8.929-56.354-23.358-14.429-14.429-23.359-34.328-23.359-56.354 0-22.224 7.398-47.793 21.572-71.434 9.014-15.052 20.807-29.367 35.179-41.556h-9.27c-6.266 0-11.963-2.58-16.101-6.69-4.11-4.139-6.661-9.808-6.661-16.101 0-6.265 2.551-11.963 6.661-16.073 2.409-2.409 5.329-4.28 8.589-5.414v-22.507c0-27.497 11.227-52.47 29.311-70.555 18.085-18.113 43.058-29.311 70.583-29.311h49.663c.794-4.762 3.062-9.014 6.321-12.274 4.082-4.082 9.751-6.633 15.959-6.633h21.317l.028-30.785c-1.729-1.247-3.345-2.636-4.847-4.139-1.729-1.757-3.316-3.628-4.734-5.641-9.155 2.92-19.56 5.471-29.48 7.456-15.846 3.231-30.529 5.102-36.822 5.102-10.064 0-19.162-4.082-25.768-10.687-6.577-6.576-10.659-15.704-10.659-25.739 0-10.063 4.082-19.19 10.659-25.767 6.605-6.605 15.704-10.687 25.768-10.687 6.293 0 20.977 1.871 36.822 5.103 9.893 1.984 20.325 4.536 29.48 7.455 1.418-2.013 3.005-3.883 4.734-5.641 7.54-7.541 18-12.218 29.509-12.218 11.537 0 21.969 4.677 29.509 12.218 1.729 1.757 3.316 3.628 4.733 5.641 9.157-2.92 19.589-5.471 29.51-7.455 15.817-3.232 30.501-5.103 36.794-5.103 10.062 0 19.162 4.082 25.767 10.687 6.577 6.576 10.659 15.704 10.659 25.767 0 10.035-4.082 19.163-10.659 25.739-6.605 6.604-15.704 10.687-25.767 10.687-6.293 0-20.977-1.871-36.794-5.102-9.921-1.984-20.353-4.536-29.51-7.456-1.417 2.013-3.005 3.884-4.733 5.641-1.503 1.503-3.118 2.892-4.819 4.139v30.785h21.317c6.208 0 11.877 2.551 15.959 6.633 3.26 3.26 5.527 7.512 6.321 12.274h122.09c.765-4.762 3.061-9.014 6.32-12.274 4.082-4.082 9.724-6.633 15.96-6.633h34.045c4.139 0 7.483 3.373 7.483 7.512v102.218c0 4.167-3.345 7.513-7.483 7.513h-34.045c-6.236 0-11.878-2.552-15.96-6.634-3.26-3.26-5.556-7.512-6.32-12.246h-122.09c-.794 4.734-3.062 8.986-6.321 12.246-4.082 4.082-9.751 6.634-15.959 6.634h-29.027c-4.139 0-7.483-3.346-7.483-7.513 0-4.138 3.345-7.483 7.483-7.483h29.027c2.069 0 3.969-.85 5.357-2.239 1.361-1.389 2.239-3.26 2.239-5.357v-72.058c0-2.069-.878-3.969-2.239-5.357-1.389-1.361-3.288-2.24-5.357-2.24h-92.015c-2.069 0-3.968.879-5.357 2.24-1.36 1.389-2.211 3.288-2.211 5.357v72.058c0 2.098.851 3.968 2.211 5.357 1.39 1.389 3.288 2.239 5.357 2.239h29.028c4.139 0 7.483 3.345 7.483 7.483 0 4.167-3.345 7.513-7.483 7.513h-29.028c-6.208 0-11.877-2.552-15.959-6.634-3.26-3.26-5.527-7.512-6.321-12.246h-49.663c-5.584 0-10.686 2.296-14.4 6.009s-6.038 8.816-6.038 14.4v22.507c3.26 1.134 6.18 3.005 8.59 5.414 4.11 4.11 6.689 9.808 6.689 16.073 0 6.292-2.579 11.962-6.689 16.101-4.111 4.11-9.809 6.69-16.073 6.69h-9.27c1.446 1.219 2.835 2.438 4.224 3.713 7.427 6.747 14.089 14.061 20.013 21.772zm-71.943-71.038h49.465v-21.231c0-9.723 3.997-18.567 10.432-25.002 6.406-6.406 15.279-10.431 25.002-10.431h49.352v-49.437h-49.352c-23.387 0-44.59 9.524-59.981 24.917-15.364 15.364-24.917 36.596-24.917 59.954v21.23zm56.976 14.996h-64.46c-2.126 0-4.082.878-5.499 2.296-1.39 1.417-2.268 3.345-2.268 5.471s.879 4.082 2.268 5.499c1.417 1.417 3.373 2.267 5.499 2.267h64.46c2.126 0 4.054-.85 5.471-2.267 1.418-1.418 2.296-3.373 2.296-5.499s-.878-4.054-2.296-5.471c-1.417-1.418-3.345-2.296-5.471-2.296zm145.845-192.701c7.144 0 13.89-2.778 18.936-7.824 4.847-4.847 7.823-11.538 7.823-18.908 0-7.398-2.977-14.088-7.823-18.907-4.848-4.847-11.509-7.852-18.907-7.852-7.37 0-14.061 3.005-18.907 7.852-4.848 4.819-7.823 11.508-7.823 18.907 0 7.37 2.976 14.06 7.823 18.908 4.819 4.819 11.508 7.795 18.878 7.824zm9.723 14.995c-6.463 0-12.926 0-19.389 0v22.706h19.389zm30.813-51.903c.794 3.26 1.247 6.662 1.247 10.176 0 3.487-.453 6.888-1.247 10.149 8.192 2.551 17.376 4.762 26.164 6.548 14.74 2.977 28.233 4.734 33.874 4.734 5.924 0 11.281-2.41 15.165-6.293 3.855-3.883 6.265-9.241 6.265-15.138 0-5.924-2.409-11.282-6.265-15.165-3.884-3.884-9.241-6.265-15.165-6.265-5.642 0-19.134 1.729-33.874 4.705-8.788 1.787-17.971 3.998-26.164 6.549zm-80.986 20.325c-.822-3.261-1.248-6.662-1.248-10.149 0-3.515.426-6.917 1.248-10.176-8.222-2.551-17.406-4.762-26.193-6.548-14.74-2.976-28.233-4.705-33.874-4.705-5.925 0-11.282 2.381-15.137 6.265-3.884 3.883-6.293 9.241-6.293 15.165 0 5.896 2.409 11.254 6.293 15.138 3.854 3.883 9.212 6.293 15.137 6.293 5.641 0 19.134-1.757 33.874-4.734 8.787-1.787 17.971-3.998 26.193-6.549zm230.543 137.624v-49.437h-121.466v49.437zm49.126-68.345h-26.533c-2.097 0-3.997.879-5.358 2.24-1.389 1.389-2.239 3.288-2.239 5.357v72.058c0 2.098.851 3.968 2.239 5.357 1.361 1.389 3.262 2.239 5.358 2.239h26.533zm-449.297 254.951c-4.139 0-7.513-3.345-7.513-7.483 0-4.167 3.374-7.512 7.513-7.512h11.565v-3.543c0-4.139 3.345-7.483 7.512-7.483 4.139 0 7.483 3.345 7.483 7.483v3.543h12.076v-3.543c0-4.139 3.345-7.483 7.483-7.483 4.139 0 7.512 3.345 7.512 7.483v4.621c3.686 1.049 7.002 2.891 9.723 5.301 4.734 4.139 7.653 9.949 7.653 16.413 0 5.897-2.438 11.254-6.463 15.308 4.025 4.025 6.463 9.382 6.463 15.278 0 6.463-2.919 12.274-7.653 16.413-2.721 2.41-6.037 4.252-9.723 5.33v4.592c0 4.139-3.373 7.483-7.512 7.483s-7.483-3.345-7.483-7.483v-3.543h-12.075v3.543c0 4.139-3.345 7.483-7.483 7.483-4.167 0-7.512-3.345-7.512-7.483v-3.543h-11.566c-4.139 0-7.513-3.345-7.513-7.484 0-4.167 3.374-7.512 7.513-7.512h3.516v-23.074-23.105zm18.539 30.587v15.59h27.581c2.92 0 5.499-.992 7.342-2.608 1.559-1.389 2.551-3.231 2.551-5.188 0-1.956-.992-3.798-2.551-5.187-1.843-1.616-4.422-2.608-7.342-2.608h-27.581zm27.581-30.587h-27.581v15.59h27.581c2.92 0 5.499-.991 7.342-2.607 1.559-1.389 2.551-3.232 2.551-5.188s-.992-3.798-2.551-5.188c-1.843-1.586-4.422-2.607-7.342-2.607z" />
  </g>
</svg>
