<?xml version="1.0" encoding="UTF-8" standalone="no"?>
<svg
   xmlns:dc="http://purl.org/dc/elements/1.1/"
   xmlns:cc="http://creativecommons.org/ns#"
   xmlns:rdf="http://www.w3.org/1999/02/22-rdf-syntax-ns#"
   xmlns:svg="http://www.w3.org/2000/svg"
   xmlns="http://www.w3.org/2000/svg"
   xmlns:sodipodi="http://sodipodi.sourceforge.net/DTD/sodipodi-0.dtd"
   xmlns:inkscape="http://www.inkscape.org/namespaces/inkscape"
   inkscape:version="1.0 (1.0+r73+1)"
   sodipodi:docname="feedback.svg"
   class=""
   height="512"
   width="512"
   xml:space="preserve"
   style="enable-background:new 0 0 512 512;"
   viewBox="0 0 512 512"
   y="0px"
   x="0px"
   id="Capa_1"
   version="1.1"><metadata
   id="metadata55"><rdf:RDF><cc:Work
       rdf:about=""><dc:format>image/svg+xml</dc:format><dc:type
         rdf:resource="http://purl.org/dc/dcmitype/StillImage" /></cc:Work></rdf:RDF></metadata><defs
   id="defs53">
	
	
	
	
	
	
	
	
	
	
	
	
	
	
</defs><sodipodi:namedview
   inkscape:current-layer="Capa_1"
   inkscape:window-maximized="1"
   inkscape:window-y="0"
   inkscape:window-x="0"
   inkscape:cy="256"
   inkscape:cx="260.21978"
   inkscape:zoom="1.421875"
   showgrid="false"
   id="namedview51"
   inkscape:window-height="1029"
   inkscape:window-width="1920"
   inkscape:pageshadow="2"
   inkscape:pageopacity="0"
   guidetolerance="10"
   gridtolerance="10"
   objecttolerance="10"
   borderopacity="1"
   bordercolor="#666666"
   pagecolor="#ffffff" /><g
   style="stroke:#ffffff;stroke-opacity:1;fill:#ffffff;fill-opacity:1"
   id="g8">
	<path
   style="fill:#ffffff;stroke:#ffffff;stroke-opacity:1;fill-opacity:1"
   d="m 25.6,196.267 h 34.133 v 51.2 l 51.2,-51.2 h 290.133 c 9.412,-0.026 17.041,-7.654 17.067,-17.067 V 25.6 C 418.107,16.188 410.479,8.559 401.066,8.533 H 25.6 C 16.188,8.559 8.559,16.188 8.533,25.6 v 153.6 c 0.026,9.412 7.655,17.041 17.067,17.067 z m 25.6,-128 h 34.133 v 0 H 102.4 c 9.429,0 17.067,7.637 17.067,17.067 0,9.43 -7.638,17.066 -17.067,17.066 9.429,0 17.067,7.637 17.067,17.067 0,9.43 -7.637,17.067 -17.067,17.067 H 85.333 v 0 H 68.267 V 68.267 Z"
   data-original="#FFE26E"
   class=""
   data-old_color="#FFE26E"
   id="path2" />
	<path
   style="fill:#ffffff;stroke:#ffffff;stroke-opacity:1;fill-opacity:1"
   d="m 102.4,102.4 c 9.429,0 17.067,-7.637 17.067,-17.067 0,-9.43 -7.637,-17.067 -17.067,-17.067 H 68.267 V 102.4 Z"
   data-original="#FFE26E"
   class=""
   data-old_color="#FFE26E"
   id="path4" />
	<path
   style="fill:#ffffff;stroke:#ffffff;stroke-opacity:1;fill-opacity:1"
   d="M 68.267,136.533 H 102.4 c 9.429,0 17.067,-7.637 17.067,-17.067 0,-9.43 -7.638,-17.066 -17.067,-17.066 H 68.267 Z"
   data-original="#FFE26E"
   class=""
   data-old_color="#FFE26E"
   id="path6" />
</g><g
   style="stroke:#000000;stroke-opacity:1;fill:#ffffff;fill-opacity:1"
   id="g16">
	<path
   style="fill:#ffffff;stroke:#000000;stroke-opacity:1;fill-opacity:1"
   d="M 486.4,264.533 H 110.933 c -9.412,0.026 -17.041,7.654 -17.067,17.067 v 153.6 c 0.026,9.412 7.654,17.041 17.067,17.067 h 290.133 l 51.2,51.2 v -51.2 H 486.4 c 9.412,-0.026 17.041,-7.654 17.067,-17.067 V 281.6 c -0.026,-9.412 -7.655,-17.041 -17.067,-17.067 z m -42.667,110.934 c 0,9.429 -7.637,17.067 -17.067,17.067 H 409.6 v 0 H 392.533 V 324.267 H 409.6 v 0 h 17.067 c 9.429,0 17.067,7.637 17.067,17.067 0,9.429 -7.637,17.067 -17.067,17.067 9.429,-0.001 17.066,7.636 17.066,17.066 z"
   data-original="#FFAF46"
   class=""
   data-old_color="#FFAF46"
   id="path10" />
	<path
   style="fill:#ffffff;stroke:#000000;stroke-opacity:1;fill-opacity:1"
   d="m 443.733,341.333 c 0,-9.429 -7.637,-17.067 -17.067,-17.067 H 392.533 V 358.4 h 34.133 c 9.43,0 17.067,-7.637 17.067,-17.067 z"
   data-original="#FFAF46"
   class=""
   data-old_color="#FFAF46"
   id="path12" />
	<path
   style="fill:#ffffff;stroke:#000000;stroke-opacity:1;fill-opacity:1"
   d="m 392.533,392.533 h 34.133 c 9.429,0 17.067,-7.637 17.067,-17.067 0,-9.429 -7.637,-17.067 -17.067,-17.067 h -34.133 z"
   data-original="#FFAF46"
   class=""
   data-old_color="#FFAF46"
   id="path14" />
</g><path
   id="path18"
   data-old_color="#231F20"
   class="active-path"
   data-original="#231F20"
   d="m 59.733,256 c -4.71,0 -8.533,-3.823 -8.533,-8.533 V 204.8 H 25.6 C 11.46,204.8 0,193.34 0,179.2 V 25.6 C 0,11.46 11.46,0 25.6,0 h 375.467 c 14.14,0 25.6,11.46 25.6,25.6 v 153.6 c 0,14.14 -11.46,25.6 -25.6,25.6 H 114.466 l -48.7,48.7 c -1.595,1.604 -3.771,2.5 -6.033,2.5 z M 25.6,17.067 c -4.71,0 -8.533,3.823 -8.533,8.533 v 153.6 c 0,4.71 3.823,8.533 8.533,8.533 h 34.133 c 4.71,0 8.533,3.823 8.533,8.533 v 30.601 L 104.9,190.233 c 1.596,-1.604 3.772,-2.5 6.033,-2.5 h 290.133 c 4.71,0 8.533,-3.823 8.533,-8.533 V 25.6 c 0,-4.71 -3.823,-8.533 -8.533,-8.533 z"
   style="fill:#000000;fill-opacity:1;stroke:#000000;stroke-opacity:1" /><path
   id="path20"
   data-old_color="#231F20"
   class="active-path"
   data-original="#231F20"
   d="m 128,85.333 c 0,-14.14 -11.46,-25.6 -25.6,-25.6 H 93.867 V 51.2 H 76.8 v 8.533 H 51.2 V 76.8 h 8.533 V 128 H 51.2 v 17.067 h 25.6 v 8.533 h 17.067 v -8.533 h 8.533 c 14.08,0.06 25.54,-11.298 25.6,-25.378 0.026,-6.391 -2.347,-12.57 -6.656,-17.289 4.258,-4.668 6.63,-10.752 6.656,-17.067 z M 76.8,76.8 h 25.6 c 4.71,0 8.533,3.823 8.533,8.533 0,4.71 -3.823,8.533 -8.533,8.533 H 76.8 Z M 102.4,128 H 76.8 v -17.067 h 25.6 c 4.71,0 8.533,3.823 8.533,8.533 0,4.711 -3.823,8.534 -8.533,8.534 z"
   style="fill:#000000;fill-opacity:1;stroke:#000000;stroke-opacity:1" /><path
   id="path22"
   data-old_color="#231F20"
   class="active-path"
   data-original="#231F20"
   d="m 179.2,59.733 h -17.067 c -4.71,0 -8.533,-3.823 -8.533,-8.533 0,-4.71 3.823,-8.533 8.533,-8.533 H 179.2 c 4.71,0 8.533,3.823 8.533,8.533 0,4.71 -3.823,8.533 -8.533,8.533 z"
   style="fill:#000000;fill-opacity:1;stroke:#000000;stroke-opacity:1" /><path
   id="path24"
   data-old_color="#231F20"
   class="active-path"
   data-original="#231F20"
   d="m 230.4,59.733 h -17.067 c -4.71,0 -8.533,-3.823 -8.533,-8.533 0,-4.71 3.823,-8.533 8.533,-8.533 H 230.4 c 4.71,0 8.533,3.823 8.533,8.533 0,4.71 -3.823,8.533 -8.533,8.533 z"
   style="fill:#000000;fill-opacity:1;stroke:#000000;stroke-opacity:1" /><path
   id="path26"
   data-old_color="#231F20"
   class="active-path"
   data-original="#231F20"
   d="m 366.933,93.867 h -204.8 c -4.71,0 -8.533,-3.823 -8.533,-8.533 0,-4.71 3.823,-8.533 8.533,-8.533 h 204.8 c 4.71,0 8.533,3.823 8.533,8.533 10e-4,4.71 -3.822,8.533 -8.533,8.533 z"
   style="fill:#000000;fill-opacity:1;stroke:#000000;stroke-opacity:1" /><path
   id="path28"
   data-old_color="#231F20"
   class="active-path"
   data-original="#231F20"
   d="m 366.933,128 h -204.8 c -4.71,0 -8.533,-3.823 -8.533,-8.533 0,-4.71 3.823,-8.533 8.533,-8.533 h 204.8 c 4.71,0 8.533,3.823 8.533,8.533 10e-4,4.71 -3.822,8.533 -8.533,8.533 z"
   style="fill:#000000;fill-opacity:1;stroke:#000000;stroke-opacity:1" /><path
   id="path30"
   data-old_color="#231F20"
   class="active-path"
   data-original="#231F20"
   d="m 366.933,162.133 h -204.8 c -4.71,0 -8.533,-3.823 -8.533,-8.533 0,-4.71 3.823,-8.533 8.533,-8.533 h 204.8 c 4.71,0 8.533,3.823 8.533,8.533 0,4.71 -3.822,8.533 -8.533,8.533 z"
   style="fill:#000000;fill-opacity:1;stroke:#000000;stroke-opacity:1" /><path
   id="path32"
   data-old_color="#231F20"
   class="active-path"
   data-original="#231F20"
   d="m 452.267,512 c -2.261,0 -4.437,-0.896 -6.033,-2.5 l -48.7,-48.7 H 110.933 c -14.14,0 -25.6,-11.46 -25.6,-25.6 V 281.6 c 0,-14.14 11.46,-25.6 25.6,-25.6 H 486.4 c 14.14,0 25.6,11.46 25.6,25.6 v 153.6 c 0,14.14 -11.46,25.6 -25.6,25.6 h -25.6 v 42.667 c 0,4.71 -3.823,8.533 -8.533,8.533 z M 110.933,273.067 c -4.71,0 -8.533,3.823 -8.533,8.533 v 153.6 c 0,4.71 3.823,8.533 8.533,8.533 h 290.133 c 2.261,0 4.437,0.896 6.033,2.5 l 36.634,36.634 v -30.601 c 0,-4.71 3.823,-8.533 8.533,-8.533 H 486.4 c 4.71,0 8.533,-3.823 8.533,-8.533 V 281.6 c 0,-4.71 -3.823,-8.533 -8.533,-8.533 z"
   style="fill:#000000;fill-opacity:1;stroke:#000000;stroke-opacity:1" /><path
   id="path34"
   data-old_color="#231F20"
   class="active-path"
   data-original="#231F20"
   d="m 452.267,341.333 c 0,-14.14 -11.46,-25.6 -25.6,-25.6 h -8.533 V 307.2 h -17.067 v 8.533 h -25.6 V 332.8 H 384 V 384 h -8.533 v 17.067 h 25.6 v 8.533 h 17.067 v -8.533 h 8.533 c 14.08,0.06 25.54,-11.298 25.6,-25.378 0.026,-6.391 -2.347,-12.57 -6.656,-17.289 4.258,-4.668 6.63,-10.752 6.656,-17.067 z m -51.2,-8.533 h 25.6 c 4.71,0 8.533,3.823 8.533,8.533 0,4.71 -3.823,8.533 -8.533,8.533 h -25.6 z m 25.6,51.2 h -25.6 v -17.067 h 25.6 c 4.71,0 8.533,3.823 8.533,8.533 0,4.711 -3.823,8.534 -8.533,8.534 z"
   style="fill:#000000;fill-opacity:1;stroke:#000000;stroke-opacity:1" /><path
   id="path36"
   data-old_color="#231F20"
   class="active-path"
   data-original="#231F20"
   d="M 145.067,315.733 H 128 c -4.71,0 -8.533,-3.823 -8.533,-8.533 0,-4.71 3.823,-8.533 8.533,-8.533 h 17.067 c 4.71,0 8.533,3.823 8.533,8.533 0,4.71 -3.823,8.533 -8.533,8.533 z"
   style="fill:#000000;fill-opacity:1;stroke:#000000;stroke-opacity:1" /><path
   id="path38"
   data-old_color="#231F20"
   class="active-path"
   data-original="#231F20"
   d="M 196.267,315.733 H 179.2 c -4.71,0 -8.533,-3.823 -8.533,-8.533 0,-4.71 3.823,-8.533 8.533,-8.533 h 17.067 c 4.71,0 8.533,3.823 8.533,8.533 0,4.71 -3.823,8.533 -8.533,8.533 z"
   style="fill:#000000;fill-opacity:1;stroke:#000000;stroke-opacity:1" /><path
   id="path40"
   data-old_color="#231F20"
   class="active-path"
   data-original="#231F20"
   d="M 332.8,349.867 H 128 c -4.71,0 -8.533,-3.823 -8.533,-8.533 0,-4.71 3.823,-8.534 8.533,-8.534 h 204.8 c 4.71,0 8.533,3.823 8.533,8.533 0,4.71 -3.823,8.534 -8.533,8.534 z"
   style="fill:#000000;fill-opacity:1;stroke:#000000;stroke-opacity:1" /><path
   id="path42"
   data-old_color="#231F20"
   class="active-path"
   data-original="#231F20"
   d="M 332.8,384 H 128 c -4.71,0 -8.533,-3.823 -8.533,-8.533 0,-4.71 3.823,-8.533 8.533,-8.533 h 204.8 c 4.71,0 8.533,3.823 8.533,8.533 0,4.71 -3.823,8.533 -8.533,8.533 z"
   style="fill:#000000;fill-opacity:1;stroke:#000000;stroke-opacity:1" /><path
   id="path44"
   data-old_color="#231F20"
   class="active-path"
   data-original="#231F20"
   d="M 332.8,418.133 H 128 c -4.71,0 -8.533,-3.823 -8.533,-8.533 0,-4.71 3.823,-8.533 8.533,-8.533 h 204.8 c 4.71,0 8.533,3.823 8.533,8.533 0,4.71 -3.823,8.533 -8.533,8.533 z"
   style="fill:#000000;fill-opacity:1;stroke:#000000;stroke-opacity:1" /> </svg>
