<?xml version="1.0" encoding="UTF-8" standalone="no"?>
<svg
   xmlns:dc="http://purl.org/dc/elements/1.1/"
   xmlns:cc="http://creativecommons.org/ns#"
   xmlns:rdf="http://www.w3.org/1999/02/22-rdf-syntax-ns#"
   xmlns:svg="http://www.w3.org/2000/svg"
   xmlns="http://www.w3.org/2000/svg"
   xmlns:sodipodi="http://sodipodi.sourceforge.net/DTD/sodipodi-0.dtd"
   xmlns:inkscape="http://www.inkscape.org/namespaces/inkscape"
   inkscape:version="1.0 (1.0+r73+1)"
   sodipodi:docname="inheritance.svg"
   height="512px"
   width="512px"
   xml:space="preserve"
   style="enable-background:new 0 0 512 512;"
   viewBox="0 0 512 512"
   y="0px"
   x="0px"
   id="Capa_1"
   version="1.1"><metadata
   id="metadata427"><rdf:RDF><cc:Work
       rdf:about=""><dc:format>image/svg+xml</dc:format><dc:type
         rdf:resource="http://purl.org/dc/dcmitype/StillImage" /></cc:Work></rdf:RDF></metadata><defs
   id="defs425" /><sodipodi:namedview
   inkscape:current-layer="Capa_1"
   inkscape:window-maximized="1"
   inkscape:window-y="0"
   inkscape:window-x="0"
   inkscape:cy="678.75936"
   inkscape:cx="931.292"
   inkscape:zoom="0.35546875"
   showgrid="false"
   id="namedview423"
   inkscape:window-height="1029"
   inkscape:window-width="1920"
   inkscape:pageshadow="2"
   inkscape:pageopacity="0"
   guidetolerance="10"
   gridtolerance="10"
   objecttolerance="10"
   borderopacity="1"
   bordercolor="#666666"
   pagecolor="#ffffff" />
<g
   style=";fill-opacity:1"
   id="g6">
	<g
   style=";fill-opacity:1"
   id="g4">
		<path
   style=";fill-opacity:1"
   id="path2"
   
   d="M255.856,0c-48.52,0-88,39.48-88,88s39.48,88,88,88c48.528,0,88-39.48,88-88S304.376,0,255.856,0z M255.856,160    c-39.704,0-72-32.296-72-72s32.296-72,72-72s72,32.296,72,72S295.56,160,255.856,160z" />
	</g>
</g>
<g
   style=";fill-opacity:1"
   id="g12">
	<g
   style=";fill-opacity:1"
   id="g10">
		<path
   style=";fill-opacity:1"
   id="path8"
   
   d="M335.856,111.992c-4.424,0-8,3.576-8,8c0,39.704-32.296,72-72,72s-72-32.296-72-72c0-4.424-3.576-8-8-8s-8,3.576-8,8    c0,48.52,39.48,88,88,88c48.528,0,88-39.48,88-88C343.856,115.568,340.28,111.992,335.856,111.992z" />
	</g>
</g>
<g
   style=";fill-opacity:1"
   id="g18">
	<g
   style=";fill-opacity:1"
   id="g16">
		<path
   style=";fill-opacity:1"
   id="path14"
   
   d="M335.856,80c-4.424,0-8,3.576-8,8v31.992c0,4.424,3.576,8,8,8s8-3.576,8-8V88C343.856,83.576,340.28,80,335.856,80z" />
	</g>
</g>
<g
   style=";fill-opacity:1"
   id="g24">
	<g
   style=";fill-opacity:1"
   id="g22">
		<path
   style=";fill-opacity:1"
   id="path20"
   
   d="M239.856,40c-4.424,0-8,3.576-8,8v72c0,4.424,3.576,8,8,8s8-3.576,8-8V48C247.856,43.576,244.28,40,239.856,40z" />
	</g>
</g>
<g
   style=";fill-opacity:1"
   id="g30">
	<g
   style=";fill-opacity:1"
   id="g28">
		<path
   style=";fill-opacity:1"
   id="path26"
   
   d="M263.856,40c-4.424,0-8,3.576-8,8s3.576,8,8,8c4.416,0,8,3.584,8,7.992c0,4.416-3.584,8-8,8c-4.424,0-8,3.576-8,8    s3.576,8,8,8c13.24,0,24-10.768,24-24C287.856,50.768,277.088,40,263.856,40z" />
	</g>
</g>
<g
   style=";fill-opacity:1"
   id="g36">
	<g
   style=";fill-opacity:1"
   id="g34">
		<path
   style=";fill-opacity:1"
   id="path32"
   
   d="M267.848,71.984c-4.424,0-8,3.576-8,8s3.576,8,8,8c6.616,0,12.008,5.392,12.008,12.016c0,6.616-5.392,12-12.008,12    c-4.424,0-8,3.576-8,8s3.576,8,8,8c15.448,0,28.008-12.56,28.008-28C295.856,84.552,283.296,71.984,267.848,71.984z" />
	</g>
</g>
<g
   style=";fill-opacity:1"
   id="g42">
	<g
   style=";fill-opacity:1"
   id="g40">
		<path
   style=";fill-opacity:1"
   id="path38"
   
   d="M263.856,40h-32c-4.424,0-8,3.576-8,8s3.576,8,8,8h32c4.424,0,8-3.576,8-8S268.28,40,263.856,40z" />
	</g>
</g>
<g
   style=";fill-opacity:1"
   id="g48">
	<g
   style=";fill-opacity:1"
   id="g46">
		<path
   style=";fill-opacity:1"
   id="path44"
   
   d="M267.848,112h-35.992c-4.424,0-8,3.576-8,8s3.576,8,8,8h35.992c4.424,0,8-3.576,8-8S272.272,112,267.848,112z" />
	</g>
</g>
<g
   style=";fill-opacity:1"
   id="g54">
	<g
   style=";fill-opacity:1"
   id="g52">
		<path
   style=";fill-opacity:1"
   id="path50"
   
   d="M267.848,71.984c0,0,0,0-0.008,0L239.848,72c-4.408,0-7.992,3.584-7.992,8.008c0,4.416,3.584,7.992,8,7.992l28-0.016    c4.416,0,7.992-3.584,7.992-8.008C275.848,75.56,272.264,71.984,267.848,71.984z" />
	</g>
</g>
<g
   style=";fill-opacity:1"
   id="g60">
	<g
   style=";fill-opacity:1"
   id="g58">
		<path
   style=";fill-opacity:1"
   id="path56"
   
   d="M255.856,31.992c-4.424,0-8,3.576-8,8V48c0,4.424,3.576,8,8,8s8-3.576,8-8v-8.008    C263.856,35.568,260.28,31.992,255.856,31.992z" />
	</g>
</g>
<g
   style=";fill-opacity:1"
   id="g66">
	<g
   style=";fill-opacity:1"
   id="g64">
		<path
   style=";fill-opacity:1"
   id="path62"
   
   d="M255.856,112c-4.424,0-8,3.576-8,8v8c0,4.424,3.576,8,8,8s8-3.576,8-8v-8C263.856,115.576,260.28,112,255.856,112z" />
	</g>
</g>
<g
   style=";fill-opacity:1"
   id="g72">
	<g
   style=";fill-opacity:1"
   id="g70">
		<path
   style=";fill-opacity:1"
   id="path68"
   
   d="M255.856,160c-4.424,0-8,3.576-8,8v31.992c0,4.424,3.576,8,8,8s8-3.576,8-8V168C263.856,163.576,260.28,160,255.856,160z" />
	</g>
</g>
<g
   style=";fill-opacity:1"
   id="g78">
	<g
   style=";fill-opacity:1"
   id="g76">
		<path
   style=";fill-opacity:1"
   id="path74"
   
   d="M295.856,149.296c-4.424,0-8,3.576-8,8v31.984c0,4.424,3.576,8,8,8s8-3.576,8-8v-31.984    C303.856,152.872,300.28,149.296,295.856,149.296z" />
	</g>
</g>
<g
   style=";fill-opacity:1"
   id="g84">
	<g
   style=";fill-opacity:1"
   id="g82">
		<path
   style=";fill-opacity:1"
   id="path80"
   
   d="M215.856,149.296c-4.424,0-8,3.576-8,8v31.984c0,4.424,3.576,8,8,8s8-3.576,8-8v-31.984    C223.856,152.872,220.28,149.296,215.856,149.296z" />
	</g>
</g>
<g
   style=";fill-opacity:1"
   id="g90">
	<g
   style=";fill-opacity:1"
   id="g88">
		<path
   style=";fill-opacity:1"
   id="path86"
   
   d="M175.856,80c-4.424,0-8,3.576-8,8v31.992c0,4.424,3.576,8,8,8s8-3.576,8-8V88C183.856,83.576,180.28,80,175.856,80z" />
	</g>
</g>
<g
   style=";fill-opacity:1"
   id="g96">
	<g
   style=";fill-opacity:1"
   id="g94">
		<path
   style=";fill-opacity:1"
   id="path92"
   
   d="M56.144,424c-26.472,0-48,21.528-48,48c0,4.424,3.576,8,8,8c4.416,0,8-3.576,8-8c0-17.648,14.352-32,32-32    c4.424,0,8-3.576,8-8S60.568,424,56.144,424z" />
	</g>
</g>
<g
   style=";fill-opacity:1"
   id="g102">
	<g
   style=";fill-opacity:1"
   id="g100">
		<path
   style=";fill-opacity:1"
   id="path98"
   
   d="M80.144,424h-24c-4.424,0-8,3.576-8,8s3.576,8,8,8h24c4.416,0,8-3.576,8-8S84.568,424,80.144,424z" />
	</g>
</g>
<g
   style=";fill-opacity:1"
   id="g108">
	<g
   style=";fill-opacity:1"
   id="g106">
		<path
   style=";fill-opacity:1"
   id="path104"
   
   d="M16.144,464c-4.424,0-8,3.576-8,8v24c0,4.424,3.576,8,8,8c4.416,0,8-3.576,8-8v-24C24.144,467.576,20.568,464,16.144,464z    " />
	</g>
</g>
<g
   style=";fill-opacity:1"
   id="g114">
	<g
   style=";fill-opacity:1"
   id="g112">
		<path
   style=";fill-opacity:1"
   id="path110"
   
   d="M24.144,495.992c-0.48-4.208-3.952-7.904-8.416-7.536c-4.24,0.232-7.584,3.296-7.584,7.544c0,8.824,7.176,16,16,16    c4.416,0,8-3.584,8-8.008C32.144,499.576,28.56,495.992,24.144,495.992z" />
	</g>
</g>
<g
   style=";fill-opacity:1"
   id="g120">
	<g
   style=";fill-opacity:1"
   id="g118">
		<path
   style=";fill-opacity:1"
   id="path116"
   
   d="M168.144,424c-4.424,0-8,3.576-8,8s3.576,8,8,8c17.648,0,32,14.352,32,32c0,4.424,3.576,8,8,8c4.416,0,8-3.576,8-8    C216.144,445.528,194.616,424,168.144,424z" />
	</g>
</g>
<g
   style=";fill-opacity:1"
   id="g126">
	<g
   style=";fill-opacity:1"
   id="g124">
		<path
   style=";fill-opacity:1"
   id="path122"
   
   d="M168.144,424h-24c-4.424,0-8,3.576-8,8s3.576,8,8,8h24c4.416,0,8-3.576,8-8S172.568,424,168.144,424z" />
	</g>
</g>
<g
   style=";fill-opacity:1"
   id="g132">
	<g
   style=";fill-opacity:1"
   id="g130">
		<path
   style=";fill-opacity:1"
   id="path128"
   
   d="M208.144,464c-4.424,0-8,3.576-8,8v24c0,4.424,3.576,8,8,8c4.416,0,8-3.576,8-8v-24    C216.144,467.576,212.568,464,208.144,464z" />
	</g>
</g>
<g
   style=";fill-opacity:1"
   id="g138">
	<g
   style=";fill-opacity:1"
   id="g136">
		<path
   style=";fill-opacity:1"
   id="path134"
   
   d="M208.144,488c-4.424,0-8,3.576-8,8c-4.424,0-8,3.576-8,8s3.576,8,8,8c8.816,0,16-7.176,16-16    C216.144,491.576,212.568,488,208.144,488z" />
	</g>
</g>
<g
   style=";fill-opacity:1"
   id="g144">
	<g
   style=";fill-opacity:1"
   id="g142">
		<path
   style=";fill-opacity:1"
   id="path140"
   
   d="M200.144,496h-176c-4.424,0-8,3.576-8,8s3.576,8,8,8h176c4.416,0,8-3.576,8-8S204.568,496,200.144,496z" />
	</g>
</g>
<g
   style=";fill-opacity:1"
   id="g150">
	<g
   style=";fill-opacity:1"
   id="g148">
		<path
   style=";fill-opacity:1"
   id="path146"
   
   d="M80.144,392.512c-4.424,0-8,3.576-8,8V432c0,4.424,3.576,8,8,8c4.416,0,8-3.576,8-8v-31.488    C88.144,396.088,84.568,392.512,80.144,392.512z" />
	</g>
</g>
<g
   style=";fill-opacity:1"
   id="g156">
	<g
   style=";fill-opacity:1"
   id="g154">
		<path
   style=";fill-opacity:1"
   id="path152"
   
   d="M144.144,392.512c-4.424,0-8,3.576-8,8V432c0,4.424,3.576,8,8,8c4.416,0,8-3.576,8-8v-31.488    C152.144,396.088,148.568,392.512,144.144,392.512z" />
	</g>
</g>
<g
   style=";fill-opacity:1"
   id="g162">
	<g
   style=";fill-opacity:1"
   id="g160">
		<path
   style=";fill-opacity:1"
   id="path158"
   
   d="M184.144,328.016c-4.424,0-8,3.576-8,8c0,35.28-28.712,63.984-64.008,63.984c-35.288,0-63.992-28.704-63.992-63.984    c0-4.424-3.576-8-8-8c-4.424,0-8,3.576-8,8c0,44.104,35.88,79.984,79.992,79.984s80.008-35.88,80.008-79.984    C192.144,331.592,188.568,328.016,184.144,328.016z" />
	</g>
</g>
<g
   style=";fill-opacity:1"
   id="g168">
	<g
   style=";fill-opacity:1"
   id="g166">
		<path
   style=";fill-opacity:1"
   id="path164"
   
   d="M40.144,280c-4.424,0-8,3.576-8,8v48.408c0,4.424,3.576,8,8,8c4.416,0,8-3.576,8-8V288    C48.144,283.576,44.568,280,40.144,280z" />
	</g>
</g>
<g
   style=";fill-opacity:1"
   id="g174">
	<g
   style=";fill-opacity:1"
   id="g172">
		<path
   style=";fill-opacity:1"
   id="path170"
   
   d="M184.144,280c-4.424,0-8,3.576-8,8v48.016c0,4.424,3.576,8,8,8c4.416,0,8-3.576,8-8V288    C192.144,283.576,188.568,280,184.144,280z" />
	</g>
</g>
<g
   style=";fill-opacity:1"
   id="g180">
	<g
   style=";fill-opacity:1"
   id="g178">
		<path
   style=";fill-opacity:1"
   id="path176"
   
   d="M152.144,248c-4.424,0-8,3.576-8,8s3.576,8,8,8c13.232,0,24,10.768,24,23.992c0,4.424,3.576,8,8,8c4.416,0,8-3.576,8-8    C192.144,265.936,174.2,248,152.144,248z" />
	</g>
</g>
<g
   style=";fill-opacity:1"
   id="g186">
	<g
   style=";fill-opacity:1"
   id="g184">
		<path
   style=";fill-opacity:1"
   id="path182"
   
   d="M152.144,216c-4.424,0-8,3.576-8,8v32c0,4.424,3.576,8,8,8c4.416,0,8-3.576,8-8v-32    C160.144,219.576,156.568,216,152.144,216z" />
	</g>
</g>
<g
   style=";fill-opacity:1"
   id="g192">
	<g
   style=";fill-opacity:1"
   id="g190">
		<path
   style=";fill-opacity:1"
   id="path188"
   
   d="M152.144,216h-48c-4.424,0-8,3.576-8,8s3.576,8,8,8h48c4.416,0,8-3.576,8-8S156.568,216,152.144,216z" />
	</g>
</g>
<g
   style=";fill-opacity:1"
   id="g198">
	<g
   style=";fill-opacity:1"
   id="g196">
		<path
   style=";fill-opacity:1"
   id="path194"
   
   d="M104.144,216c-39.704,0-72,32.296-72,72c0,4.424,3.576,8,8,8c4.416,0,8-3.576,8-8c0-30.872,25.128-56,56-56    c4.424,0,8-3.576,8-8S108.568,216,104.144,216z" />
	</g>
</g>
<g
   style=";fill-opacity:1"
   id="g204">
	<g
   style=";fill-opacity:1"
   id="g202">
		<path
   style=";fill-opacity:1"
   id="path200"
   
   d="M188.616,305.56l-24-16.2c-3.672-2.456-8.64-1.496-11.112,2.16c-2.464,3.664-1.504,8.632,2.16,11.112l24,16.2    c1.376,0.92,2.936,1.368,4.472,1.368c2.568,0,5.088-1.232,6.64-3.528C193.24,313.008,192.28,308.04,188.616,305.56z" />
	</g>
</g>
<g
   style=";fill-opacity:1"
   id="g210">
	<g
   style=";fill-opacity:1"
   id="g208">
		<path
   style=";fill-opacity:1"
   id="path206"
   
   d="M167.312,292.48c-1.944-3.952-6.744-5.584-10.696-3.656c-0.152,0.072-15.048,7.176-40.472,7.176    c-26.224,0-49.256-7.512-49.48-7.6c-4.192-1.4-8.72,0.896-10.112,5.08c-1.384,4.192,0.888,8.712,5.072,10.112    c1.024,0.344,25.624,8.408,54.52,8.408c29.48,0,46.84-8.48,47.576-8.832C167.656,301.2,169.256,296.432,167.312,292.48z" />
	</g>
</g>
<g
   style=";fill-opacity:1"
   id="g216">
	<g
   style=";fill-opacity:1"
   id="g214">
		<path
   style=";fill-opacity:1"
   id="path212"
   
   d="M70.776,291.528c-2.472-3.664-7.44-4.624-11.112-2.16l-24,16.2c-3.664,2.48-4.624,7.448-2.152,11.112    c1.544,2.288,4.072,3.52,6.64,3.52c1.536,0,3.088-0.44,4.464-1.36l24-16.2C72.28,300.16,73.248,295.192,70.776,291.528z" />
	</g>
</g>
<g
   style=";fill-opacity:1"
   id="g222">
	<g
   style=";fill-opacity:1"
   id="g220">
		<path
   style=";fill-opacity:1"
   id="path218"
   
   d="M99.728,432.848l-16-8c-3.944-1.968-8.752-0.376-10.736,3.576c-1.976,3.952-0.376,8.76,3.576,10.736l16,8    c1.144,0.568,2.368,0.84,3.568,0.84c2.936,0,5.752-1.616,7.168-4.416C105.28,439.632,103.68,434.824,99.728,432.848z" />
	</g>
</g>
<g
   style=";fill-opacity:1"
   id="g228">
	<g
   style=";fill-opacity:1"
   id="g226">
		<path
   style=";fill-opacity:1"
   id="path224"
   
   d="M119.296,428.416c-1.984-3.952-6.776-5.544-10.736-3.576l-16,8c-3.952,1.976-5.552,6.784-3.576,10.736    c1.408,2.808,4.232,4.424,7.168,4.424c1.2,0,2.416-0.272,3.568-0.848l16-8C119.672,437.176,121.272,432.368,119.296,428.416z" />
	</g>
</g>
<g
   style=";fill-opacity:1"
   id="g234">
	<g
   style=";fill-opacity:1"
   id="g232">
		<path
   style=";fill-opacity:1"
   id="path230"
   
   d="M151.296,428.416c-1.984-3.952-6.784-5.544-10.736-3.576l-16,8c-3.952,1.976-5.552,6.784-3.576,10.736    c1.408,2.808,4.232,4.424,7.168,4.424c1.2,0,2.416-0.272,3.568-0.848l16-8C151.672,437.176,153.272,432.368,151.296,428.416z" />
	</g>
</g>
<g
   style=";fill-opacity:1"
   id="g240">
	<g
   style=";fill-opacity:1"
   id="g238">
		<path
   style=";fill-opacity:1"
   id="path236"
   
   d="M131.728,432.848l-16-8c-3.952-1.968-8.752-0.376-10.736,3.576c-1.976,3.952-0.376,8.76,3.576,10.736l16,8    c1.144,0.568,2.368,0.84,3.568,0.84c2.936,0,5.752-1.616,7.168-4.416C137.28,439.632,135.68,434.824,131.728,432.848z" />
	</g>
</g>
<g
   style=";fill-opacity:1"
   id="g246">
	<g
   style=";fill-opacity:1"
   id="g244">
		<path
   style=";fill-opacity:1"
   id="path242"
   
   d="M327.856,293.12c-4.424,0-8,3.576-8,8v34.56c0,4.424,3.576,8,8,8s8-3.576,8-8v-34.56    C335.856,296.696,332.28,293.12,327.856,293.12z" />
	</g>
</g>
<g
   style=";fill-opacity:1"
   id="g252">
	<g
   style=";fill-opacity:1"
   id="g250">
		<path
   style=";fill-opacity:1"
   id="path248"
   
   d="M471.856,291.992c-4.424,0-8,3.576-8,8V336c0,4.424,3.576,8,8,8s8-3.576,8-8v-36.008    C479.856,295.568,476.28,291.992,471.856,291.992z" />
	</g>
</g>
<g
   style=";fill-opacity:1"
   id="g258">
	<g
   style=";fill-opacity:1"
   id="g256">
		<path
   style=";fill-opacity:1"
   id="path254"
   
   d="M395.848,216c-46.312,0-83.992,37.68-83.992,83.992c0,4.424,3.576,8,8,8s8-3.576,8-8    c0-37.488,30.496-67.992,67.992-67.992c37.504,0,68.008,30.496,68.008,67.992c0,4.424,3.576,8,8,8s8-3.576,8-8    C479.856,253.68,442.168,216,395.848,216z" />
	</g>
</g>
<g
   style=";fill-opacity:1"
   id="g264">
	<g
   style=";fill-opacity:1"
   id="g262">
		<path
   style=";fill-opacity:1"
   id="path260"
   
   d="M478.216,304.856c-26.272-34.288-45.128-28.184-69.008-20.456c-18.936,6.12-44.912,14.504-88.096,7.688    c-4.352-0.72-8.464,2.288-9.152,6.648c-0.696,4.368,2.288,8.464,6.648,9.152c47.024,7.448,75.04-1.64,95.512-8.264    c23.288-7.536,32-10.352,51.384,14.968c1.576,2.056,3.952,3.136,6.36,3.136c1.696,0,3.408-0.544,4.864-1.656    C480.24,313.384,480.904,308.36,478.216,304.856z" />
	</g>
</g>
<g
   style=";fill-opacity:1"
   id="g270">
	<g
   style=";fill-opacity:1"
   id="g268">
		<path
   style=";fill-opacity:1"
   id="path266"
   
   d="M460.528,246.848c-3.6-2.584-8.592-1.76-11.168,1.824l-24,33.336c-2.576,3.592-1.76,8.592,1.824,11.168    c1.416,1.008,3.048,1.504,4.664,1.504c2.488,0,4.944-1.16,6.504-3.328l24-33.336C464.928,254.424,464.112,249.424,460.528,246.848    z" />
	</g>
</g>
<g
   style=";fill-opacity:1"
   id="g276">
	<g
   style=";fill-opacity:1"
   id="g274">
		<path
   style=";fill-opacity:1"
   id="path272"
   
   d="M343.856,424c-26.472,0-48,21.528-48,48c0,4.424,3.576,8,8,8s8-3.576,8-8c0-17.648,14.352-32,32-32c4.424,0,8-3.576,8-8    S348.28,424,343.856,424z" />
	</g>
</g>
<g
   style=";fill-opacity:1"
   id="g282">
	<g
   style=";fill-opacity:1"
   id="g280">
		<path
   style=";fill-opacity:1"
   id="path278"
   
   d="M367.856,424h-24c-4.424,0-8,3.576-8,8s3.576,8,8,8h24c4.424,0,8-3.576,8-8S372.28,424,367.856,424z" />
	</g>
</g>
<g
   style=";fill-opacity:1"
   id="g288">
	<g
   style=";fill-opacity:1"
   id="g286">
		<path
   style=";fill-opacity:1"
   id="path284"
   
   d="M303.856,464c-4.424,0-8,3.576-8,8v24c0,4.424,3.576,8,8,8s8-3.576,8-8v-24C311.856,467.576,308.28,464,303.856,464z" />
	</g>
</g>
<g
   style=";fill-opacity:1"
   id="g294">
	<g
   style=";fill-opacity:1"
   id="g292">
		<path
   style=";fill-opacity:1"
   id="path290"
   
   d="M311.856,495.992c-0.472-4.208-4.032-7.904-8.416-7.536c-4.24,0.232-7.584,3.296-7.584,7.544c0,8.824,7.176,16,16,16    c4.424,0,8-3.584,8-8.008C319.856,499.576,316.272,495.992,311.856,495.992z" />
	</g>
</g>
<g
   style=";fill-opacity:1"
   id="g300">
	<g
   style=";fill-opacity:1"
   id="g298">
		<path
   style=";fill-opacity:1"
   id="path296"
   
   d="M455.856,424c-4.424,0-8,3.576-8,8s3.576,8,8,8c17.648,0,32,14.352,32,32c0,4.424,3.576,8,8,8s8-3.576,8-8    C503.856,445.528,482.328,424,455.856,424z" />
	</g>
</g>
<g
   style=";fill-opacity:1"
   id="g306">
	<g
   style=";fill-opacity:1"
   id="g304">
		<path
   style=";fill-opacity:1"
   id="path302"
   
   d="M455.856,424h-24c-4.424,0-8,3.576-8,8s3.576,8,8,8h24c4.424,0,8-3.576,8-8S460.28,424,455.856,424z" />
	</g>
</g>
<g
   style=";fill-opacity:1"
   id="g312">
	<g
   style=";fill-opacity:1"
   id="g310">
		<path
   style=";fill-opacity:1"
   id="path308"
   
   d="M495.856,464c-4.424,0-8,3.576-8,8v24c0,4.424,3.576,8,8,8s8-3.576,8-8v-24C503.856,467.576,500.28,464,495.856,464z" />
	</g>
</g>
<g
   style=";fill-opacity:1"
   id="g318">
	<g
   style=";fill-opacity:1"
   id="g316">
		<path
   style=";fill-opacity:1"
   id="path314"
   
   d="M495.856,488c-4.424,0-8,3.576-8,8c-4.424,0-8,3.576-8,8s3.576,8,8,8c8.824,0,16-7.176,16-16    C503.856,491.576,500.28,488,495.856,488z" />
	</g>
</g>
<g
   style=";fill-opacity:1"
   id="g324">
	<g
   style=";fill-opacity:1"
   id="g322">
		<path
   style=";fill-opacity:1"
   id="path320"
   
   d="M487.856,496h-176c-4.424,0-8,3.576-8,8s3.576,8,8,8h176c4.424,0,8-3.576,8-8S492.28,496,487.856,496z" />
	</g>
</g>
<g
   style=";fill-opacity:1"
   id="g330">
	<g
   style=";fill-opacity:1"
   id="g328">
		<path
   style=";fill-opacity:1"
   id="path326"
   
   d="M367.856,392.512c-4.424,0-8,3.576-8,8V432c0,4.424,3.576,8,8,8s8-3.576,8-8v-31.488    C375.856,396.088,372.28,392.512,367.856,392.512z" />
	</g>
</g>
<g
   style=";fill-opacity:1"
   id="g336">
	<g
   style=";fill-opacity:1"
   id="g334">
		<path
   style=";fill-opacity:1"
   id="path332"
   
   d="M431.856,392.512c-4.424,0-8,3.576-8,8V432c0,4.424,3.576,8,8,8s8-3.576,8-8v-31.488    C439.856,396.088,436.28,392.512,431.856,392.512z" />
	</g>
</g>
<g
   style=";fill-opacity:1"
   id="g342">
	<g
   style=";fill-opacity:1"
   id="g340">
		<path
   style=";fill-opacity:1"
   id="path338"
   
   d="M471.856,328.016c-4.424,0-8,3.576-8,8c0,35.28-28.712,63.984-64.008,63.984c-35.288,0-63.992-28.704-63.992-63.984    c0-4.424-3.576-8-8-8s-8,3.576-8,8c0,44.104,35.88,79.984,79.992,79.984c44.12,0,80.008-35.88,80.008-79.984    C479.856,331.592,476.28,328.016,471.856,328.016z" />
	</g>
</g>
<g
   style=";fill-opacity:1"
   id="g348">
	<g
   style=";fill-opacity:1"
   id="g346">
		<path
   style=";fill-opacity:1"
   id="path344"
   
   d="M387.44,432.848l-16-8c-3.96-1.968-8.752-0.376-10.736,3.576c-1.976,3.952-0.376,8.76,3.576,10.736l16,8    c1.144,0.568,2.368,0.84,3.568,0.84c2.944,0,5.76-1.616,7.168-4.416C392.992,439.632,391.392,434.824,387.44,432.848z" />
	</g>
</g>
<g
   style=";fill-opacity:1"
   id="g354">
	<g
   style=";fill-opacity:1"
   id="g352">
		<path
   style=";fill-opacity:1"
   id="path350"
   
   d="M407.008,428.416c-1.984-3.952-6.792-5.544-10.736-3.576l-16,8c-3.952,1.976-5.552,6.784-3.576,10.736    c1.408,2.808,4.232,4.424,7.168,4.424c1.208,0,2.424-0.272,3.568-0.848l16-8C407.384,437.176,408.984,432.368,407.008,428.416z" />
	</g>
</g>
<g
   style=";fill-opacity:1"
   id="g360">
	<g
   style=";fill-opacity:1"
   id="g358">
		<path
   style=";fill-opacity:1"
   id="path356"
   
   d="M439.008,428.416c-1.984-3.952-6.784-5.544-10.736-3.576l-16,8c-3.952,1.976-5.552,6.784-3.576,10.736    c1.408,2.808,4.232,4.424,7.168,4.424c1.208,0,2.424-0.272,3.568-0.848l16-8C439.384,437.176,440.984,432.368,439.008,428.416z" />
	</g>
</g>
<g
   style=";fill-opacity:1"
   id="g366">
	<g
   style=";fill-opacity:1"
   id="g364">
		<path
   style=";fill-opacity:1"
   id="path362"
   
   d="M419.44,432.848l-16-8c-3.952-1.968-8.752-0.376-10.736,3.576c-1.976,3.952-0.376,8.76,3.576,10.736l16,8    c1.144,0.568,2.368,0.84,3.568,0.84c2.944,0,5.76-1.616,7.168-4.416C424.992,439.632,423.392,434.824,419.44,432.848z" />
	</g>
</g>
<g
   style=";fill-opacity:1"
   id="g372">
	<g
   style=";fill-opacity:1"
   id="g370">
		<path
   style=";fill-opacity:1"
   id="path368"
   
   d="M399.856,80c-4.424,0-8,3.576-8,8v104c0,4.424,3.576,8,8,8s8-3.576,8-8V88C407.856,83.576,404.28,80,399.856,80z" />
	</g>
</g>
<g
   style=";fill-opacity:1"
   id="g378">
	<g
   style=";fill-opacity:1"
   id="g376">
		<path
   style=";fill-opacity:1"
   id="path374"
   
   d="M399.856,80h-32c-4.424,0-8,3.576-8,8s3.576,8,8,8h32c4.424,0,8-3.576,8-8S404.28,80,399.856,80z" />
	</g>
</g>
<g
   style=";fill-opacity:1"
   id="g384">
	<g
   style=";fill-opacity:1"
   id="g382">
		<path
   style=";fill-opacity:1"
   id="path380"
   
   d="M111.856,80c-4.424,0-8,3.576-8,8v104c0,4.424,3.576,8,8,8s8-3.576,8-8V88C119.856,83.576,116.28,80,111.856,80z" />
	</g>
</g>
<g
   style=";fill-opacity:1"
   id="g390">
	<g
   style=";fill-opacity:1"
   id="g388">
		<path
   style=";fill-opacity:1"
   id="path386"
   
   d="M143.856,80h-32c-4.424,0-8,3.576-8,8s3.576,8,8,8h32c4.424,0,8-3.576,8-8S148.28,80,143.856,80z" />
	</g>
</g>
<g
   id="g392">
</g>
<g
   id="g394">
</g>
<g
   id="g396">
</g>
<g
   id="g398">
</g>
<g
   id="g400">
</g>
<g
   id="g402">
</g>
<g
   id="g404">
</g>
<g
   id="g406">
</g>
<g
   id="g408">
</g>
<g
   id="g410">
</g>
<g
   id="g412">
</g>
<g
   id="g414">
</g>
<g
   id="g416">
</g>
<g
   id="g418">
</g>
<g
   id="g420">
</g>
</svg>


