<?xml version="1.0" encoding="UTF-8" standalone="no"?>
<svg
   xmlns:dc="http://purl.org/dc/elements/1.1/"
   xmlns:cc="http://creativecommons.org/ns#"
   xmlns:rdf="http://www.w3.org/1999/02/22-rdf-syntax-ns#"
   xmlns:svg="http://www.w3.org/2000/svg"
   xmlns="http://www.w3.org/2000/svg"
   xmlns:sodipodi="http://sodipodi.sourceforge.net/DTD/sodipodi-0.dtd"
   xmlns:inkscape="http://www.inkscape.org/namespaces/inkscape"
   inkscape:version="1.0 (1.0+r73+1)"
   sodipodi:docname="send.svg"
   id="svg38"
   version="1.1"
   width="512px"
   viewBox="-3 0 471 472"
   height="512px">
  <metadata
     id="metadata44">
    <rdf:RDF>
      <cc:Work
         rdf:about="">
        <dc:format>image/svg+xml</dc:format>
        <dc:type
           rdf:resource="http://purl.org/dc/dcmitype/StillImage" />
      </cc:Work>
    </rdf:RDF>
  </metadata>
  <defs
     id="defs42" />
  <sodipodi:namedview
     inkscape:current-layer="svg38"
     inkscape:window-maximized="1"
     inkscape:window-y="0"
     inkscape:window-x="0"
     inkscape:cy="523.03029"
     inkscape:cx="962.6026"
     inkscape:zoom="0.35546875"
     showgrid="false"
     id="namedview40"
     inkscape:window-height="1029"
     inkscape:window-width="1920"
     inkscape:pageshadow="2"
     inkscape:pageopacity="0"
     guidetolerance="10"
     gridtolerance="10"
     objecttolerance="10"
     borderopacity="1"
     bordercolor="#666666"
     pagecolor="#ffffff" />
  <path
     style=";fill-opacity:1"
     id="path2"
     
     d="m464.5 88c0 22.089844-17.910156 40-40 40s-40-17.910156-40-40 17.910156-40 40-40 40 17.910156 40 40zm0 0" />
  <path
     style=";fill-opacity:1"
     id="path4"
     
     d="m88.5 432c0 22.089844-17.910156 40-40 40s-40-17.910156-40-40 17.910156-40 40-40 40 17.910156 40 40zm0 0" />
  <path
     style=";fill-opacity:1"
     id="path6"
     
     d="m264.5 40c0 22.089844-17.910156 40-40 40s-40-17.910156-40-40 17.910156-40 40-40 40 17.910156 40 40zm0 0" />
  <path
     style=";fill-opacity:1"
     id="path8"
     
     d="m368.5 280h-56v32h56c4.417969 0 8-3.582031 8-8v-16c0-4.417969-3.582031-8-8-8zm0 0" />
  <path
     style=";fill-opacity:1"
     id="path10"
     
     d="m368.5 232h-56v32h56c4.417969 0 8-3.582031 8-8v-16c0-4.417969-3.582031-8-8-8zm0 0" />
  <path
     style=";fill-opacity:1"
     id="path12"
     
     d="m336.5 144c-70.691406 0-128 57.308594-128 128s57.308594 128 128 128 128-57.308594 128-128c-.082031-70.65625-57.34375-127.917969-128-128zm110.566406 110.039062-15.796875 2.546876c-1.203125-7.445313-3.28125-14.71875-6.195312-21.675782l14.761719-6.183594c3.398437 8.125 5.828124 16.621094 7.230468 25.3125zm-31.644531-61.511718c6.238281 6.207031 11.730469 13.121094 16.367187 20.601562l-13.601562 8.414063c-3.976562-6.410157-8.6875-12.335938-14.039062-17.65625zm-36.394531-24.167969c8.148437 3.34375 15.871094 7.640625 23.007812 12.800781l-9.375 12.976563c-6.113281-4.410157-12.726562-8.082031-19.703125-10.9375zm-42.527344-8.359375c8.679688 0 17.332031.996094 25.785156 2.976562l-3.65625 15.574219c-7.253906-1.695312-14.679687-2.554687-22.128906-2.550781l-.320312-16zm-17.839844 1.425781 2.527344 15.789063c-7.445312 1.199218-14.722656 3.273437-21.679688 6.175781l-6.207031-14.765625c8.136719-3.394531 16.652344-5.8125 25.359375-7.199219zm-40.953125 15.199219 8.425781 13.597656c-6.421874 3.972656-12.355468 8.683594-17.679687 14.035156l-11.335937-11.296874c6.207031-6.21875 13.117187-11.695313 20.589843-16.3125zm-32 29.726562 12.960938 9.375c-4.417969 6.121094-8.101563 12.746094-10.96875 19.730469l-14.785157-6.097656c3.355469-8.132813 7.65625-15.835937 12.816407-22.960937zm-21.207031 65.441407c-.003906-8.722657 1.003906-17.417969 3.007812-25.90625l15.578126 3.6875c-1.722657 7.28125-2.589844 14.738281-2.585938 22.21875l-16 .207031zm1.390625 17.933593 15.800781-2.519531c1.1875 7.449219 3.25 14.730469 6.152344 21.6875l-14.769531 6.160157c-3.386719-8.128907-5.796875-16.628907-7.183594-25.328126zm31.519531 61.601563c-6.226562-6.214844-11.707031-13.140625-16.324218-20.632813l13.597656-8.390624c3.972656 6.425781 8.679687 12.363281 14.03125 17.695312zm36.347656 24.238281c-8.140624-3.359375-15.855468-7.671875-22.976562-12.847656l9.398438-12.957031c6.105468 4.4375 12.710937 8.144531 19.679687 11.039062zm42.636719 8.433594c-8.757812.003906-17.492187-1.019531-26.015625-3.039062l3.707032-15.5625c7.308593 1.734374 14.796874 2.605468 22.308593 2.601562l.105469 16zm17.722657-1.375-2.503907-15.792969c7.449219-1.183593 14.730469-3.242187 21.695313-6.136719l6.144531 14.785157c-8.140625 3.371093-16.652344 5.769531-25.351563 7.144531zm14.382812-54.625h-16v16h-16v-16h-16v16h-16v-16h-16v-16h8v-80h-8v-16h16v-16h16v16h16v-16h16v16h16c13.253906 0 24 10.746094 24 24v16c-.019531 5.921875-2.246094 11.625-6.238281 16 3.992187 4.375 6.21875 10.078125 6.238281 16v16c0 13.253906-10.746094 24-24 24zm26.585938 39.480469-8.386719-13.601563c6.429687-3.953125 12.371093-8.648437 17.703125-13.992187l11.296875 11.3125c-6.214844 6.210937-13.132813 11.675781-20.613281 16.28125zm32.046874-29.65625-12.945312-9.425781c4.441406-6.097657 8.144531-12.695313 11.039062-19.664063l14.777344 6.121094c-3.371094 8.136719-7.691406 15.847656-12.871094 22.96875zm2.734376-43.410157c1.753906-7.339843 2.640624-14.863281 2.632812-22.414062l11.960938-.320312 4.039062.113281c.015625 8.871093-1.011719 17.710937-3.0625 26.34375zm0 0" />
  <path
     style=";fill-opacity:1"
     id="path14"
     
     d="m64.5 264h120v16h-120zm0 0" />
  <path
     style=";fill-opacity:1"
     id="path16"
     
     d="m.5 264h48v16h-48zm0 0" />
  <path
     style=";fill-opacity:1"
     id="path18"
     
     d="m112.5 128h192v16h-192zm0 0" />
  <path
     style=";fill-opacity:1"
     id="path20"
     
     d="m64.5 128h32v16h-32zm0 0" />
  <path
     style=";fill-opacity:1"
     id="path22"
     
     d="m144.5 400h160v16h-160zm0 0" />
  <path
     style=";fill-opacity:1"
     id="path24"
     
     d="m96.5 400h32v16h-32zm0 0" />
  <path
     style=";fill-opacity:1"
     id="path26"
     
     d="m112.5 336h96v16h-96zm0 0" />
  <path
     style=";fill-opacity:1"
     id="path28"
     
     d="m80.5 336h16v16h-16zm0 0" />
  <path
     style=";fill-opacity:1"
     id="path30"
     
     d="m32.5 336h32v16h-32zm0 0" />
  <path
     style=";fill-opacity:1"
     id="path32"
     
     d="m112.5 192h96v16h-96zm0 0" />
  <path
     style=";fill-opacity:1"
     id="path34"
     
     d="m80.5 192h16v16h-16zm0 0" />
  <path
     style=";fill-opacity:1"
     id="path36"
     
     d="m32.5 128h16v16h-16zm0 0" />
</svg>

