<?xml version="1.0" standalone="no"?>
<!DOCTYPE svg PUBLIC "-//W3C//DTD SVG 20010904//EN"
 "http://www.w3.org/TR/2001/REC-SVG-20010904/DTD/svg10.dtd">
<svg version="1.0" xmlns="http://www.w3.org/2000/svg"
 width="825.000000pt" height="824.000000pt" viewBox="0 0 825.000000 824.000000"
 preserveAspectRatio="xMidYMid meet">

<g transform="translate(0.000000,824.000000) scale(0.100000,-0.100000)"
stroke="none">
<path d="M3795 8214 c-206 -20 -277 -28 -385 -46 -126 -20 -449 -97 -518 -122
-20 -8 -68 -24 -107 -36 -210 -64 -607 -246 -820 -374 -348 -211 -704 -519
-996 -862 -328 -386 -600 -886 -773 -1424 -72 -223 -142 -594 -166 -875 -13
-157 -13 -538 0 -701 33 -408 137 -822 307 -1223 79 -185 264 -520 372 -671
25 -36 59 -85 76 -110 79 -120 347 -431 506 -586 304 -294 682 -558 1059 -737
507 -242 1145 -387 1694 -387 281 0 665 43 928 105 626 146 1132 375 1588 718
459 346 801 729 1096 1227 256 434 449 1002 519 1537 34 258 37 765 5 1018
-58 471 -232 1001 -472 1440 -90 163 -168 284 -307 470 -239 321 -586 664
-896 886 -566 405 -1180 641 -1915 735 -109 14 -697 27 -795 18z m670 -319
c548 -65 1015 -203 1441 -425 337 -175 603 -375 892 -668 270 -274 467 -536
651 -865 47 -83 182 -389 224 -507 100 -277 179 -615 209 -890 17 -163 17
-662 -1 -790 -65 -479 -175 -859 -356 -1236 -264 -550 -634 -1001 -1118 -1363
-431 -322 -836 -514 -1387 -655 -475 -121 -964 -152 -1433 -91 -877 116 -1704
551 -2271 1195 -371 421 -624 854 -788 1345 -161 486 -205 772 -195 1270 8
347 32 550 104 845 103 429 279 832 523 1200 261 394 627 766 985 1001 150 99
196 125 370 215 427 220 771 327 1305 409 243 37 586 41 845 10z"/>
<path d="M3960 6939 c-256 -18 -545 -73 -663 -126 -81 -37 -209 -132 -247
-184 -34 -47 -38 -85 -14 -130 19 -38 98 -89 137 -89 16 0 83 18 150 40 290
95 712 153 941 129 149 -15 333 -57 501 -115 89 -30 176 -54 195 -54 68 0 152
58 166 116 9 37 -39 128 -96 183 -124 119 -406 206 -750 230 -158 12 -154 12
-320 0z"/>
<path d="M4159 6526 c-19 -7 -54 -26 -76 -42 -23 -16 -86 -61 -140 -100 -181
-131 -354 -207 -583 -255 -87 -18 -138 -22 -295 -22 -116 0 -223 5 -275 14
-138 22 -189 19 -240 -16 -126 -87 -129 -172 -25 -625 109 -476 280 -942 453
-1235 142 -240 265 -400 456 -590 185 -184 350 -313 531 -416 l60 -34 -258 -3
c-296 -3 -263 -11 -387 102 -94 86 -545 522 -830 803 -237 232 -248 241 -293
248 -27 4 -64 5 -83 2 -66 -11 -135 -83 -133 -139 2 -67 17 -83 794 -833 495
-478 500 -483 537 -490 18 -3 191 -5 383 -3 l350 3 70 50 c341 240 670 532
860 760 360 433 604 960 794 1720 61 245 82 362 84 461 2 84 0 93 -25 126 -15
20 -58 58 -95 84 l-68 47 -140 -19 c-175 -24 -409 -23 -545 0 -244 43 -503
167 -699 334 -58 49 -116 83 -138 82 -4 -1 -24 -7 -44 -14z m226 -498 c224
-127 431 -195 690 -229 93 -12 454 -8 487 6 22 9 23 10 -48 -280 -104 -427
-199 -698 -353 -1010 -169 -340 -388 -617 -631 -797 -102 -75 -293 -188 -319
-188 -50 0 -261 122 -406 235 -87 68 -238 218 -308 305 -52 66 -186 260 -215
312 -216 386 -342 744 -470 1328 l-18 85 265 0 c251 1 273 2 391 28 69 14 161
38 205 52 103 33 335 148 449 223 l90 59 55 -42 c31 -23 92 -62 136 -87z"/>
<path d="M6255 5975 c-22 -8 -53 -28 -69 -46 -26 -29 -28 -37 -24 -89 5 -66
29 -119 133 -285 158 -254 267 -497 343 -765 36 -128 72 -290 72 -324 0 -16
-44 -30 -385 -126 -368 -103 -727 -207 -784 -228 -116 -42 -161 -161 -100
-261 41 -68 83 -67 350 13 118 36 246 74 284 84 39 11 142 41 230 67 88 25
216 62 284 81 68 19 128 37 132 40 13 8 11 -64 -6 -211 -8 -71 -15 -133 -15
-137 0 -5 -12 -8 -27 -8 -38 0 -131 -24 -428 -110 -451 -129 -559 -161 -630
-184 -38 -13 -151 -47 -250 -76 -215 -63 -242 -76 -280 -130 -59 -85 -39 -192
43 -227 50 -21 13 -30 682 167 321 95 765 223 808 233 16 4 22 2 18 -6 -31
-72 -99 -251 -111 -295 l-16 -57 -82 -24 c-45 -14 -129 -39 -187 -57 -58 -18
-188 -58 -290 -89 -102 -31 -239 -73 -305 -94 -447 -144 -839 -263 -1230 -376
-82 -24 -199 -59 -260 -78 -60 -19 -125 -38 -142 -42 l-33 -7 0 94 c0 142 -38
197 -142 205 -71 6 -135 -26 -163 -82 -19 -38 -20 -57 -18 -452 l3 -412 -33 5
c-161 28 -433 126 -652 233 -558 275 -972 732 -1209 1336 -101 257 -133 386
-172 685 -53 407 50 968 257 1400 84 176 89 217 37 276 -68 77 -169 84 -248
17 -58 -49 -176 -320 -260 -597 -174 -571 -167 -1197 18 -1736 121 -353 298
-689 485 -920 139 -170 377 -398 532 -506 364 -255 755 -419 1169 -490 187
-31 324 -2 375 79 20 33 21 48 21 291 0 141 1 256 3 256 8 0 584 168 877 256
118 36 276 83 350 105 74 23 248 77 385 121 295 94 382 122 490 153 44 12 95
27 113 33 17 6 32 8 32 6 0 -15 -103 -136 -184 -216 -135 -134 -249 -227 -403
-330 -282 -187 -708 -362 -1074 -442 -35 -8 -54 -54 -54 -131 0 -74 25 -113
91 -145 58 -28 125 -24 271 19 506 146 960 393 1318 717 82 74 249 258 332
364 196 252 371 622 452 952 66 270 76 356 75 668 0 269 -2 293 -28 425 -68
347 -173 654 -316 921 -71 134 -219 369 -264 420 -62 71 -123 93 -191 69z"/>
</g>
</svg>
