<?xml version="1.0" encoding="UTF-8" standalone="no"?>
<svg
   xmlns:dc="http://purl.org/dc/elements/1.1/"
   xmlns:cc="http://creativecommons.org/ns#"
   xmlns:rdf="http://www.w3.org/1999/02/22-rdf-syntax-ns#"
   xmlns:svg="http://www.w3.org/2000/svg"
   xmlns="http://www.w3.org/2000/svg"
   xmlns:sodipodi="http://sodipodi.sourceforge.net/DTD/sodipodi-0.dtd"
   xmlns:inkscape="http://www.inkscape.org/namespaces/inkscape"
   inkscape:version="1.0 (1.0+r73+1)"
   sodipodi:docname="send2.svg"
   height="512px"
   width="512px"
   xml:space="preserve"
   style="enable-background:new 0 0 511.995 511.995;"
   viewBox="0 0 511.995 511.995"
   y="0px"
   x="0px"
   id="Capa_1"
   version="1.1"><metadata
   id="metadata43"><rdf:RDF><cc:Work
       rdf:about=""><dc:format>image/svg+xml</dc:format><dc:type
         rdf:resource="http://purl.org/dc/dcmitype/StillImage" /></cc:Work></rdf:RDF></metadata><defs
   id="defs41" /><sodipodi:namedview
   inkscape:current-layer="Capa_1"
   inkscape:window-maximized="1"
   inkscape:window-y="0"
   inkscape:window-x="0"
   inkscape:cy="428.55207"
   inkscape:cx="85.365814"
   inkscape:zoom="0.25135436"
   showgrid="false"
   id="namedview39"
   inkscape:window-height="1029"
   inkscape:window-width="1920"
   inkscape:pageshadow="2"
   inkscape:pageopacity="0"
   guidetolerance="10"
   gridtolerance="10"
   objecttolerance="10"
   borderopacity="1"
   bordercolor="#666666"
   pagecolor="#ffffff" />
<g
   style="fill:#000000;fill-opacity:1"
   id="g6">
	<g
   style="fill:#000000;fill-opacity:1"
   id="g4">
		<path
   style="fill:#000000;fill-opacity:1"
   id="path2"
   fill="#46B799"
   d="M492.204,3.813c-6.763-4.694-15.595-5.078-22.785-1.024L21.4,258.8c-7.296,4.16-11.478,12.246-10.646,20.63    s6.507,15.489,14.486,18.134l146.523,48.834l9.6,145.67c0.597,9.024,6.806,16.683,15.489,19.115    c1.92,0.533,3.883,0.811,5.803,0.811c6.806,0,13.334-3.264,17.409-9.003l80.515-113.669l108.677,36.226    c2.219,0.747,4.48,1.109,6.742,1.109c3.84,0,7.638-1.045,11.008-3.072c5.355-3.2,9.024-8.598,10.048-14.763l64.003-384.016    C502.401,16.678,498.967,8.507,492.204,3.813z M184.543,305.693L83.995,272.177l283.702-162.119L184.543,305.693z M220,429.282    l-4.502-68.312l42.797,14.273L220,429.282z M399.08,377.205l-169.97-56.664l218.27-233.14L399.08,377.205z" />
	</g>
</g>
<g
   id="g8">
</g>
<g
   id="g10">
</g>
<g
   id="g12">
</g>
<g
   id="g14">
</g>
<g
   id="g16">
</g>
<g
   id="g18">
</g>
<g
   id="g20">
</g>
<g
   id="g22">
</g>
<g
   id="g24">
</g>
<g
   id="g26">
</g>
<g
   id="g28">
</g>
<g
   id="g30">
</g>
<g
   id="g32">
</g>
<g
   id="g34">
</g>
<g
   id="g36">
</g>
</svg>
